<?xml version="1.0" encoding="utf-8"?>
<!-- Generator: Adobe Illustrator 16.0.0, SVG Export Plug-In . SVG Version: 6.00 Build 0)  -->
<!DOCTYPE svg PUBLIC "-//W3C//DTD SVG 1.1//EN" "http://www.w3.org/Graphics/SVG/1.1/DTD/svg11.dtd">
<svg version="1.1" id="Layer_1" xmlns="http://www.w3.org/2000/svg" xmlns:xlink="http://www.w3.org/1999/xlink" x="0px" y="0px"
	 width="157px" height="43px" viewBox="0 0 157 43" enable-background="new 0 0 157 43" xml:space="preserve">
<g>
	<g>
		<path fill="#4F446C" d="M17,36c-3.3-1.4-5.5-2.1-8-4v9c0,1,1,2,2,2h24.2c1,0,1.8-0.8,1.8-1.8v-1.7C31.7,40.7,24.2,39.2,17,36z
			 M38.3,17v1c4.2,4.1,6.1,8.5,4.6,11.9c-0.9,2.1-3.1,3.5-5.9,4.2L37,10h-8c-1,0-2-1-2-2V2c0-0.1,0.9,0,1,0v5c0,1,0.7,2,1.7,2L37,9
			l-9-9H11c-1,0-2,1-2,2v24c-5.2-4.4-8.2-10.2-6.6-14C3.2,10.2,5,8.8,7.3,8.1V7.5C4.1,8.3,1.7,10,0.6,12.5
			c-2.9,6.6,4.6,16.4,16.7,21.7c12.1,5.4,24.2,4.3,27.1-2.3C46.3,27.6,43.7,21.9,38.3,17z M12,7.3C12,7.2,12.2,7,12.3,7h2.7V4.3
			c0-0.2,0.1-0.3,0.3-0.3h1.3C16.9,4,17,4.1,17,4.3V7h2.7C19.9,7,20,7.2,20,7.3v1.3C20,8.8,19.9,9,19.7,9H17v2.7
			c0,0.2-0.1,0.3-0.3,0.3h-1.3c-0.2,0-0.3-0.1-0.3-0.3V9h-2.7C12.2,9,12,8.8,12,8.7V7.3z M12,16.5c0-0.3,0.2-0.5,0.4-0.5h8.3
			c0.2,0,0.4,0.2,0.4,0.5v1c0,0.3-0.2,0.5-0.4,0.5h-8.3c-0.2,0-0.4-0.2-0.4-0.5V16.5z M29,30.5c0,0.3-0.2,0.5-0.4,0.5H16.8
			c-1-0.6-1.9-1.3-2.8-2h14.7c0.2,0,0.4,0.2,0.4,0.5V30.5z M34,26.5c0,0.3-0.2,0.5-0.4,0.5H12.4c-0.2,0-0.4-0.2-0.4-0.5v-1
			c0-0.3,0.2-0.5,0.4-0.5h21.3c0.2,0,0.4,0.2,0.4,0.5V26.5z M34,22.5c0,0.3-0.2,0.5-0.4,0.5H12.4c-0.2,0-0.4-0.2-0.4-0.5v-1
			c0-0.3,0.2-0.5,0.4-0.5h21.3c0.2,0,0.4,0.2,0.4,0.5V22.5z"/>
	</g>
</g>
<path fill="#3C3F42" d="M55,10.9c0-0.3,0.2-0.6,0.6-0.6h12.8c0.3,0,0.6,0.3,0.6,0.6v3.5c0,0.3-0.2,0.6-0.6,0.6h-8.5v4h7
	c0.3,0,0.6,0.3,0.6,0.6v3.5c0,0.4-0.3,0.6-0.6,0.6h-7V28h8.5c0.3,0,0.6,0.3,0.6,0.6v3.5c0,0.3-0.2,0.6-0.6,0.6H55.6
	c-0.3,0-0.6-0.3-0.6-0.6V10.9z"/>
<path fill="#3C3F42" d="M70.4,31.5l8.2-16.4V15h-6.7c-0.3,0-0.6-0.3-0.6-0.6v-3.5c0-0.3,0.3-0.6,0.6-0.6H85c0.3,0,0.6,0.3,0.6,0.6
	v0.4l-7.9,16.6V28h6.7c0.3,0,0.6,0.3,0.6,0.6v3.5c0,0.3-0.2,0.6-0.6,0.6H71c-0.3,0-0.6-0.3-0.6-0.6V31.5z"/>
<path fill="#3C3F42" d="M94.3,10.9c0-0.3,0.2-0.6,0.6-0.6h7.5c6,0,10.8,5,10.8,11.2c0,6.2-4.9,11.2-10.8,11.2h-7.5
	c-0.3,0-0.6-0.3-0.6-0.6V10.9z M102.1,28c3.5,0,6-2.8,6-6.5c0-3.6-2.5-6.5-6-6.5h-3V28H102.1z"/>
<path fill="#3C3F42" d="M125.7,10c6.2,0,11.1,5.1,11.1,11.5c0,6.4-4.9,11.5-11.1,11.5s-11.1-5.1-11.1-11.5
	C114.6,15.1,119.5,10,125.7,10z M125.7,27.9c3.4,0,6.2-2.9,6.2-6.4c0-3.5-2.8-6.4-6.2-6.4c-3.4,0-6.1,2.9-6.1,6.4
	C119.6,25,122.4,27.9,125.7,27.9z"/>
<path fill="#3C3F42" d="M149.3,10c3.1,0,5.4,1,7.5,3c0.3,0.3,0.3,0.6,0,0.9l-2.4,2.6c-0.2,0.2-0.6,0.2-0.8,0
	c-1.1-1.1-2.7-1.6-4.2-1.6c-3.5,0-6,3-6,6.6c0,3.5,2.6,6.5,6.1,6.5c1.4,0,3-0.5,4.1-1.5c0.2-0.2,0.6-0.2,0.8,0l2.4,2.7
	c0.2,0.2,0.2,0.6,0,0.9c-2.1,2.1-4.8,3.1-7.5,3.1c-6.2,0-11.1-5.1-11.1-11.5C138.2,15.1,143.2,10,149.3,10z"/>
</svg>
